# Blender v2.77 (sub 0) OBJ File: 'Leaf set.blend'
# www.blender.org
mtllib Leaf set.mtl
o leaf_1
v 0.000000 -0.699393 4.933532
v 0.000001 0.699393 4.933532
v -0.000001 -0.699393 5.881537
v -0.000000 0.699393 5.881537
vt 0.0000 0.0000
vt 1.0000 0.0000
vt 1.0000 1.0000
vt 0.0000 1.0000
vn 1.0000 -0.0000 0.0000
usemtl leaf_1
s off
f 1/1/1 2/2/1 4/3/1 3/4/1
o leaf_2
v -0.000000 -0.698722 3.939718
v 0.000000 0.698722 3.939718
v -0.000000 -0.698722 4.804933
v 0.000000 0.698722 4.804933
vt 0.0000 0.0000
vt 1.0000 0.0000
vt 1.0000 1.0000
vt 0.0000 1.0000
vn 1.0000 -0.0000 0.0000
usemtl leaf_2
s off
f 5/5/2 6/6/2 8/7/2 7/8/2
o leaf_3
v 0.000000 -1.310850 3.832471
v 0.000000 -1.310850 1.999329
v -0.000000 1.310850 3.832471
v -0.000000 1.310850 1.999329
vt 0.0000 0.0000
vt 1.0000 0.0000
vt 1.0000 1.0000
vt 0.0000 1.0000
vn 1.0000 0.0000 0.0000
usemtl leaf_3
s off
f 9/9/3 10/10/3 12/11/3 11/12/3
o leaf_4
v 0.000000 -1.055699 1.983219
v 0.000000 -1.055699 0.269769
v -0.000000 1.055699 1.983219
v -0.000000 1.055699 0.269769
vt 0.0000 0.0000
vt 1.0000 0.0000
vt 1.0000 1.0000
vt 0.0000 1.0000
vn 1.0000 0.0000 0.0000
usemtl leaf_4
s off
f 13/13/4 14/14/4 16/15/4 15/16/4
o leaf_5
v -0.000000 -0.695417 -0.763049
v 0.000000 0.695417 -0.763049
v -0.000000 -0.695417 0.187717
v 0.000000 0.695417 0.187717
vt 0.0000 0.0000
vt 1.0000 0.0000
vt 1.0000 1.0000
vt 0.0000 1.0000
vn 1.0000 -0.0000 0.0000
usemtl leaf_5
s off
f 17/17/5 18/18/5 20/19/5 19/20/5
o leaf_6
v -0.000000 -0.829616 -2.016451
v 0.000000 0.829616 -2.016451
v -0.000000 -0.829616 -0.836840
v 0.000000 0.829616 -0.836840
vt 0.0000 0.0000
vt 1.0000 0.0000
vt 1.0000 1.0000
vt 0.0000 1.0000
vn 1.0000 -0.0000 0.0000
usemtl leaf_6
s off
f 21/21/6 22/22/6 24/23/6 23/24/6
o leaf_7
v 0.030566 -0.870059 -2.671605
v -0.030566 0.870059 -2.671606
v 0.030566 -0.870059 -2.037363
v -0.030566 0.870059 -2.037363
vt 0.0000 0.0000
vt 1.0000 0.0000
vt 1.0000 1.0000
vt 0.0000 1.0000
vn 0.9994 0.0351 0.0000
usemtl leaf_7
s off
f 25/25/7 26/26/7 28/27/7 27/28/7
o leaf_8
v -0.000000 -0.884213 -3.774287
v 0.000000 0.884213 -3.774287
v -0.000000 -0.884213 -2.703560
v 0.000000 0.884213 -2.703560
vt 0.0000 0.0000
vt 1.0000 0.0000
vt 1.0000 1.0000
vt 0.0000 1.0000
vn 1.0000 -0.0000 0.0000
usemtl leaf_8
s off
f 29/29/8 30/30/8 32/31/8 31/32/8
o leaf_9
v -0.000000 -1.156083 -4.615077
v 0.000000 1.156083 -4.615077
v -0.000000 -1.156083 -3.781884
v 0.000000 1.156083 -3.781884
vt 0.0000 0.0000
vt 1.0000 0.0000
vt 1.0000 1.0000
vt 0.0000 1.0000
vn 1.0000 -0.0000 0.0000
usemtl leaf_9
s off
f 33/33/9 34/34/9 36/35/9 35/36/9
o leaf_10
v -0.000000 -0.821824 -5.851334
v 0.000000 0.821824 -5.851334
v -0.000000 -0.821824 -4.692434
v 0.000000 0.821824 -4.692434
vt 0.0000 0.0000
vt 1.0000 0.0000
vt 1.0000 1.0000
vt 0.0000 1.0000
vn 1.0000 -0.0000 -0.0000
usemtl leaf_10
s off
f 37/37/10 38/38/10 40/39/10 39/40/10
